ply
format ascii 1.0
comment Created by Blender 2.74 (sub 0) - www.blender.org, source file: 'th_tower.blend'
element vertex 426
property float x
property float y
property float z
property float nx
property float ny
property float nz
element face 124
property list uchar uint vertex_indices
end_header
-0.000000 0.457199 5.752020 0.486736 0.843052 -0.228805
0.000000 1.000000 7.752020 0.486736 0.843052 -0.228805
0.866025 0.500000 7.752020 0.486736 0.843052 -0.228805
0.395946 0.228600 5.752020 0.486736 0.843052 -0.228805
0.395946 0.228600 5.752020 0.973472 -0.000000 -0.228805
0.866025 0.500000 7.752020 0.973472 -0.000000 -0.228805
0.866025 -0.500000 7.752020 0.973472 -0.000000 -0.228805
0.395946 -0.228600 5.752020 0.973472 -0.000000 -0.228805
0.395946 -0.228600 5.752020 0.486736 -0.843052 -0.228805
0.866025 -0.500000 7.752020 0.486736 -0.843052 -0.228805
-0.000000 -1.000000 7.752020 0.486736 -0.843052 -0.228805
-0.000000 -0.457199 5.752020 0.486736 -0.843052 -0.228805
-0.000000 -0.457199 5.752020 -0.486736 -0.843052 -0.228805
-0.000000 -1.000000 7.752020 -0.486736 -0.843052 -0.228805
-0.866025 -0.500000 7.752020 -0.486736 -0.843052 -0.228805
-0.395946 -0.228600 5.752020 -0.486736 -0.843052 -0.228805
0.000000 1.000000 7.752020 -0.486736 0.843052 -0.228805
-0.000000 0.457199 5.752020 -0.486736 0.843052 -0.228805
-0.395946 0.228600 5.752020 -0.486736 0.843052 -0.228805
-0.866025 0.500000 7.752020 -0.486736 0.843052 -0.228805
-0.395946 -0.228600 5.752020 -0.973472 0.000000 -0.228805
-0.866025 -0.500000 7.752020 -0.973472 0.000000 -0.228805
-0.866025 0.500000 7.752020 -0.973472 0.000000 -0.228805
-0.395946 0.228600 5.752020 -0.973472 0.000000 -0.228805
-0.000000 0.457199 5.752020 0.000000 0.000000 -1.000000
-0.395946 -0.228600 5.752020 0.000000 0.000000 -1.000000
-0.395946 0.228600 5.752020 0.000000 0.000000 -1.000000
0.395946 -0.228600 5.752020 0.000000 0.000000 -1.000000
-0.000000 -0.457199 5.752020 0.000000 0.000000 -1.000000
0.395946 0.228600 5.752020 0.000000 0.000000 -1.000000
0.000000 1.000000 7.752020 -0.313123 0.542345 0.779625
-0.866025 0.500000 7.752020 -0.313123 0.542345 0.779625
0.000000 -0.000000 8.447668 -0.313123 0.542345 0.779625
-0.866025 0.500000 7.752020 -0.626246 0.000000 0.779626
-0.866025 -0.500000 7.752020 -0.626246 0.000000 0.779626
0.000000 -0.000000 8.447668 -0.626246 0.000000 0.779626
-0.866025 -0.500000 7.752020 -0.313123 -0.542345 0.779625
-0.000000 -1.000000 7.752020 -0.313123 -0.542345 0.779625
0.000000 -0.000000 8.447668 -0.313123 -0.542345 0.779625
-0.000000 -1.000000 7.752020 0.313123 -0.542345 0.779625
0.866025 -0.500000 7.752020 0.313123 -0.542345 0.779625
0.000000 -0.000000 8.447668 0.313123 -0.542345 0.779625
0.866025 -0.500000 7.752020 0.626246 -0.000000 0.779625
0.866025 0.500000 7.752020 0.626246 -0.000000 0.779625
0.000000 -0.000000 8.447668 0.626246 -0.000000 0.779625
0.866025 0.500000 7.752020 0.313123 0.542345 0.779625
0.000000 1.000000 7.752020 0.313123 0.542345 0.779625
0.000000 -0.000000 8.447668 0.313123 0.542345 0.779625
0.000000 1.000000 -1.000000 0.430339 0.893608 0.127565
-0.000000 0.714495 1.000000 0.430339 0.893608 0.127565
0.558614 0.445480 1.000000 0.430339 0.893608 0.127565
0.781832 0.623490 -1.000000 0.430339 0.893608 0.127565
0.781832 0.623490 -1.000000 0.966963 0.220703 0.127565
0.558614 0.445480 1.000000 0.966963 0.220703 0.127565
0.696581 -0.158990 1.000000 0.966963 0.220703 0.127565
0.974928 -0.222521 -1.000000 0.966963 0.220703 0.127565
0.974928 -0.222521 -1.000000 0.775444 -0.618396 0.127565
0.696581 -0.158990 1.000000 0.775444 -0.618396 0.127565
0.310007 -0.643737 1.000000 0.775444 -0.618396 0.127565
0.433884 -0.900969 -1.000000 0.775444 -0.618396 0.127565
0.433884 -0.900969 -1.000000 -0.000000 -0.991830 0.127565
0.310007 -0.643737 1.000000 -0.000000 -0.991830 0.127565
-0.310008 -0.643737 1.000000 -0.000000 -0.991830 0.127565
-0.433884 -0.900969 -1.000000 -0.000000 -0.991830 0.127565
-0.433884 -0.900969 -1.000000 -0.775444 -0.618396 0.127565
-0.310008 -0.643737 1.000000 -0.775444 -0.618396 0.127565
-0.696581 -0.158990 1.000000 -0.775444 -0.618396 0.127565
-0.974928 -0.222521 -1.000000 -0.775444 -0.618396 0.127565
-0.000000 0.714495 1.000000 -0.357785 0.742947 0.565703
-0.558614 0.445480 1.000000 -0.357785 0.742947 0.565703
-0.402746 0.321179 1.261827 -0.357785 0.742947 0.565703
-0.000000 0.515131 1.261827 -0.357785 0.742947 0.565703
-0.781832 0.623490 -1.000000 -0.430339 0.893608 0.127565
-0.558614 0.445480 1.000000 -0.430339 0.893608 0.127565
-0.000000 0.714495 1.000000 -0.430339 0.893608 0.127565
0.000000 1.000000 -1.000000 -0.430339 0.893608 0.127565
-0.974928 -0.222521 -1.000000 -0.966963 0.220703 0.127565
-0.696581 -0.158990 1.000000 -0.966963 0.220703 0.127565
-0.558614 0.445480 1.000000 -0.966963 0.220703 0.127565
-0.781832 0.623490 -1.000000 -0.966963 0.220703 0.127565
-0.781832 0.623490 -1.000000 -0.300803 0.624624 0.720668
0.000000 1.000000 -1.000000 -0.300803 0.624624 0.720668
0.000000 1.268049 -1.232325 -0.300803 0.624624 0.720668
-0.991401 0.790615 -1.232325 -0.300803 0.624624 0.720668
-0.000000 0.515131 1.261827 -0.433884 0.900969 0.000000
-0.402746 0.321179 1.261827 -0.433884 0.900969 0.000000
-0.402746 0.321179 3.908391 -0.433884 0.900969 0.000000
0.000000 0.515131 3.908391 -0.433884 0.900969 0.000000
-0.558614 0.445480 1.000000 -0.803935 0.183493 0.565703
-0.696581 -0.158990 1.000000 -0.803935 0.183493 0.565703
-0.502216 -0.114628 1.261827 -0.803935 0.183493 0.565703
-0.402746 0.321179 1.261827 -0.803935 0.183493 0.565703
-0.696581 -0.158990 1.000000 -0.644705 -0.514135 0.565703
-0.310008 -0.643737 1.000000 -0.644705 -0.514135 0.565703
-0.223507 -0.464117 1.261827 -0.644705 -0.514135 0.565703
-0.502216 -0.114628 1.261827 -0.644705 -0.514135 0.565703
-0.310008 -0.643737 1.000000 -0.000000 -0.824609 0.565703
0.310007 -0.643737 1.000000 -0.000000 -0.824609 0.565703
0.223507 -0.464117 1.261827 -0.000000 -0.824609 0.565703
-0.223507 -0.464117 1.261827 -0.000000 -0.824609 0.565703
0.310007 -0.643737 1.000000 0.644705 -0.514136 0.565703
0.696581 -0.158990 1.000000 0.644705 -0.514136 0.565703
0.502216 -0.114628 1.261827 0.644705 -0.514136 0.565703
0.223507 -0.464117 1.261827 0.644705 -0.514136 0.565703
0.696581 -0.158990 1.000000 0.803935 0.183493 0.565703
0.558614 0.445480 1.000000 0.803935 0.183493 0.565703
0.402746 0.321179 1.261827 0.803935 0.183493 0.565703
0.502216 -0.114628 1.261827 0.803935 0.183493 0.565703
0.558614 0.445480 1.000000 0.357785 0.742947 0.565703
-0.000000 0.714495 1.000000 0.357785 0.742947 0.565703
-0.000000 0.515131 1.261827 0.357785 0.742947 0.565703
0.402746 0.321179 1.261827 0.357785 0.742947 0.565703
0.000000 0.515131 3.908391 -0.375817 0.780392 -0.499750
-0.402746 0.321179 3.908391 -0.375817 0.780392 -0.499750
-0.509033 0.405940 4.120679 -0.375817 0.780392 -0.499750
0.000000 0.651077 4.120679 -0.375817 0.780392 -0.499750
-0.402746 0.321179 1.261827 -0.974928 0.222521 0.000000
-0.502216 -0.114628 1.261827 -0.974928 0.222521 0.000000
-0.502216 -0.114628 3.908391 -0.974928 0.222521 0.000000
-0.402746 0.321179 3.908391 -0.974928 0.222521 0.000000
-0.502216 -0.114628 1.261827 -0.781831 -0.623490 0.000000
-0.223507 -0.464117 1.261827 -0.781831 -0.623490 0.000000
-0.223507 -0.464117 3.908391 -0.781831 -0.623490 0.000000
-0.502216 -0.114628 3.908391 -0.781831 -0.623490 0.000000
-0.223507 -0.464117 1.261827 -0.000000 -1.000000 0.000000
0.223507 -0.464117 1.261827 -0.000000 -1.000000 0.000000
0.223507 -0.464117 3.908391 -0.000000 -1.000000 0.000000
-0.223507 -0.464117 3.908391 -0.000000 -1.000000 0.000000
0.223507 -0.464117 1.261827 0.781832 -0.623490 -0.000000
0.502216 -0.114628 1.261827 0.781832 -0.623490 -0.000000
0.502216 -0.114628 3.908391 0.781832 -0.623490 -0.000000
0.223507 -0.464117 3.908391 0.781832 -0.623490 -0.000000
0.502216 -0.114628 1.261827 0.974928 0.222521 -0.000000
0.402746 0.321179 1.261827 0.974928 0.222521 -0.000000
0.402746 0.321179 3.908391 0.974928 0.222521 -0.000000
0.502216 -0.114628 3.908391 0.974928 0.222521 -0.000000
0.402746 0.321179 1.261827 0.433884 0.900969 -0.000000
-0.000000 0.515131 1.261827 0.433884 0.900969 -0.000000
0.000000 0.515131 3.908391 0.433884 0.900969 -0.000000
0.402746 0.321179 3.908391 0.433884 0.900969 -0.000000
0.000000 0.651077 4.120679 -0.433884 0.900969 -0.000000
-0.509033 0.405940 4.120679 -0.433884 0.900969 -0.000000
-0.509033 0.405940 5.504798 -0.433884 0.900969 -0.000000
-0.000000 0.651077 5.504798 -0.433884 0.900969 -0.000000
-0.402746 0.321179 3.908391 -0.844453 0.192741 -0.499750
-0.502216 -0.114628 3.908391 -0.844453 0.192741 -0.499750
-0.634753 -0.144878 4.120679 -0.844453 0.192741 -0.499750
-0.509033 0.405940 4.120679 -0.844453 0.192741 -0.499750
-0.502216 -0.114628 3.908391 -0.677199 -0.540048 -0.499750
-0.223507 -0.464117 3.908391 -0.677199 -0.540048 -0.499750
-0.282492 -0.586600 4.120679 -0.677199 -0.540048 -0.499750
-0.634753 -0.144878 4.120679 -0.677199 -0.540048 -0.499750
-0.223507 -0.464117 3.908391 -0.000000 -0.866170 -0.499750
0.223507 -0.464117 3.908391 -0.000000 -0.866170 -0.499750
0.282492 -0.586600 4.120679 -0.000000 -0.866170 -0.499750
-0.282492 -0.586600 4.120679 -0.000000 -0.866170 -0.499750
0.223507 -0.464117 3.908391 0.677199 -0.540048 -0.499750
0.502216 -0.114628 3.908391 0.677199 -0.540048 -0.499750
0.634753 -0.144878 4.120679 0.677199 -0.540048 -0.499750
0.282492 -0.586600 4.120679 0.677199 -0.540048 -0.499750
0.502216 -0.114628 3.908391 0.844453 0.192741 -0.499750
0.402746 0.321179 3.908391 0.844453 0.192741 -0.499750
0.509033 0.405940 4.120679 0.844453 0.192741 -0.499750
0.634753 -0.144878 4.120679 0.844453 0.192741 -0.499750
0.402746 0.321179 3.908391 0.375817 0.780392 -0.499750
0.000000 0.515131 3.908391 0.375817 0.780392 -0.499750
0.000000 0.651077 4.120679 0.375817 0.780392 -0.499750
0.509033 0.405940 4.120679 0.375817 0.780392 -0.499750
0.509032 0.405940 5.504798 0.000000 -0.000000 1.000000
0.282491 -0.586600 5.504798 0.000000 -0.000000 1.000000
0.634753 -0.144878 5.504798 0.000000 -0.000000 1.000000
-0.634754 -0.144878 5.504798 0.000000 0.000000 1.000000
-0.282492 -0.586600 5.504798 0.000000 0.000000 1.000000
-0.000000 0.651077 5.504798 0.000000 0.000000 1.000000
-0.509033 0.405940 5.504798 0.000000 0.000000 1.000000
-0.509033 0.405940 4.120679 -0.974928 0.222521 -0.000000
-0.634753 -0.144878 4.120679 -0.974928 0.222521 -0.000000
-0.634754 -0.144878 5.504798 -0.974928 0.222521 -0.000000
-0.509033 0.405940 5.504798 -0.974928 0.222521 -0.000000
-0.634753 -0.144878 4.120679 -0.781831 -0.623490 -0.000000
-0.282492 -0.586600 4.120679 -0.781831 -0.623490 -0.000000
-0.282492 -0.586600 5.504798 -0.781831 -0.623490 -0.000000
-0.634754 -0.144878 5.504798 -0.781831 -0.623490 -0.000000
-0.282492 -0.586600 4.120679 -0.000000 -1.000000 -0.000000
0.282492 -0.586600 4.120679 -0.000000 -1.000000 -0.000000
0.282491 -0.586600 5.504798 -0.000000 -1.000000 -0.000000
-0.282492 -0.586600 5.504798 -0.000000 -1.000000 -0.000000
0.282492 -0.586600 4.120679 0.781832 -0.623490 0.000000
0.634753 -0.144878 4.120679 0.781832 -0.623490 0.000000
0.634753 -0.144878 5.504798 0.781832 -0.623490 0.000000
0.282491 -0.586600 5.504798 0.781832 -0.623490 0.000000
0.634753 -0.144878 4.120679 0.974928 0.222521 0.000000
0.509033 0.405940 4.120679 0.974928 0.222521 0.000000
0.509032 0.405940 5.504798 0.974928 0.222521 0.000000
0.634753 -0.144878 5.504798 0.974928 0.222521 0.000000
0.509033 0.405940 4.120679 0.433884 0.900969 0.000000
0.000000 0.651077 4.120679 0.433884 0.900969 0.000000
-0.000000 0.651077 5.504798 0.433884 0.900969 0.000000
0.509032 0.405940 5.504798 0.433884 0.900969 0.000000
-0.991401 0.790615 -1.232325 -0.433884 0.900969 0.000000
0.000000 1.268049 -1.232325 -0.433884 0.900969 0.000000
0.000000 1.268049 -1.696976 -0.433884 0.900969 0.000000
-0.991401 0.790615 -1.696976 -0.433884 0.900969 0.000000
-0.974928 -0.222521 -1.000000 -0.675898 0.154269 0.720668
-0.781832 0.623490 -1.000000 -0.675898 0.154269 0.720668
-0.991401 0.790615 -1.232325 -0.675898 0.154269 0.720668
-1.236256 -0.282167 -1.232325 -0.675898 0.154269 0.720668
-0.433884 -0.900969 -1.000000 -0.542028 -0.432253 0.720668
-0.974928 -0.222521 -1.000000 -0.542028 -0.432253 0.720668
-1.236256 -0.282167 -1.232325 -0.542028 -0.432253 0.720668
-0.550186 -1.142472 -1.232325 -0.542028 -0.432253 0.720668
0.433884 -0.900969 -1.000000 -0.000000 -0.693280 0.720668
-0.433884 -0.900969 -1.000000 -0.000000 -0.693280 0.720668
-0.550186 -1.142472 -1.232325 -0.000000 -0.693280 0.720668
0.550186 -1.142472 -1.232325 -0.000000 -0.693280 0.720668
0.974928 -0.222521 -1.000000 0.542028 -0.432253 0.720668
0.433884 -0.900969 -1.000000 0.542028 -0.432253 0.720668
0.550186 -1.142472 -1.232325 0.542028 -0.432253 0.720668
1.236256 -0.282167 -1.232325 0.542028 -0.432253 0.720668
0.781832 0.623490 -1.000000 0.675898 0.154269 0.720668
0.974928 -0.222521 -1.000000 0.675898 0.154269 0.720668
1.236256 -0.282167 -1.232325 0.675898 0.154269 0.720668
0.991400 0.790615 -1.232325 0.675898 0.154269 0.720668
0.000000 1.000000 -1.000000 0.300803 0.624624 0.720668
0.781832 0.623490 -1.000000 0.300803 0.624624 0.720668
0.991400 0.790615 -1.232325 0.300803 0.624624 0.720668
0.000000 1.268049 -1.232325 0.300803 0.624624 0.720668
1.180539 0.941449 -1.696976 0.433884 0.900969 0.000000
1.180539 0.941449 -2.681966 0.433884 0.900969 0.000000
0.000000 1.509966 -2.681966 0.433884 0.900969 0.000000
0.000000 1.509966 -1.696976 0.433884 0.900969 0.000000
-1.236256 -0.282167 -1.232325 -0.974928 0.222521 0.000000
-0.991401 0.790615 -1.232325 -0.974928 0.222521 0.000000
-0.991401 0.790615 -1.696976 -0.974928 0.222521 0.000000
-1.236256 -0.282167 -1.696976 -0.974928 0.222521 0.000000
-0.550186 -1.142472 -1.232325 -0.781832 -0.623490 0.000000
-1.236256 -0.282167 -1.232325 -0.781832 -0.623490 0.000000
-1.236256 -0.282167 -1.696976 -0.781832 -0.623490 0.000000
-0.550186 -1.142472 -1.696976 -0.781832 -0.623490 0.000000
0.550186 -1.142472 -1.232325 0.000000 -1.000000 0.000000
-0.550186 -1.142472 -1.232325 0.000000 -1.000000 0.000000
-0.550186 -1.142472 -1.696976 0.000000 -1.000000 0.000000
0.550186 -1.142472 -1.696976 0.000000 -1.000000 0.000000
1.236256 -0.282167 -1.232325 0.781831 -0.623490 0.000000
0.550186 -1.142472 -1.232325 0.781831 -0.623490 0.000000
0.550186 -1.142472 -1.696976 0.781831 -0.623490 0.000000
1.236256 -0.282167 -1.696976 0.781831 -0.623490 0.000000
0.991400 0.790615 -1.232325 0.974928 0.222521 0.000000
1.236256 -0.282167 -1.232325 0.974928 0.222521 0.000000
1.236256 -0.282167 -1.696976 0.974928 0.222521 0.000000
0.991400 0.790615 -1.696976 0.974928 0.222521 0.000000
0.000000 1.268049 -1.232325 0.433884 0.900969 0.000000
0.991400 0.790615 -1.232325 0.433884 0.900969 0.000000
0.991400 0.790615 -1.696976 0.433884 0.900969 0.000000
0.000000 1.268049 -1.696976 0.433884 0.900969 0.000000
-0.991401 0.790615 -2.681966 0.000000 0.000000 -1.000000
-1.180539 0.941448 -2.681966 0.000000 0.000000 -1.000000
0.000000 1.509966 -2.681966 0.000000 0.000000 -1.000000
0.000000 1.268049 -2.681966 0.000000 0.000000 -1.000000
1.472108 -0.335999 -1.696976 0.974928 0.222521 0.000000
1.472108 -0.335999 -2.681966 0.974928 0.222521 0.000000
1.180539 0.941449 -2.681966 0.974928 0.222521 0.000000
1.180539 0.941449 -1.696976 0.974928 0.222521 0.000000
0.655150 -1.360433 -1.696976 0.781831 -0.623490 0.000000
0.655150 -1.360433 -2.681966 0.781831 -0.623490 0.000000
1.472108 -0.335999 -2.681966 0.781831 -0.623490 0.000000
1.472108 -0.335999 -1.696976 0.781831 -0.623490 0.000000
-0.655150 -1.360433 -1.696976 -0.000000 -1.000000 0.000000
-0.655150 -1.360433 -2.681966 -0.000000 -1.000000 0.000000
0.655150 -1.360433 -2.681966 -0.000000 -1.000000 0.000000
0.655150 -1.360433 -1.696976 -0.000000 -1.000000 0.000000
-1.472108 -0.335999 -1.696976 -0.781831 -0.623490 0.000000
-1.472108 -0.335999 -2.681966 -0.781831 -0.623490 0.000000
-0.655150 -1.360433 -2.681966 -0.781831 -0.623490 0.000000
-0.655150 -1.360433 -1.696976 -0.781831 -0.623490 0.000000
-1.180539 0.941448 -1.696976 -0.974928 0.222521 0.000000
-1.180539 0.941448 -2.681966 -0.974928 0.222521 0.000000
-1.472108 -0.335999 -2.681966 -0.974928 0.222521 0.000000
-1.472108 -0.335999 -1.696976 -0.974928 0.222521 0.000000
0.000000 1.509966 -1.696976 -0.433884 0.900969 0.000000
0.000000 1.509966 -2.681966 -0.433884 0.900969 0.000000
-1.180539 0.941448 -2.681966 -0.433884 0.900969 0.000000
-1.180539 0.941448 -1.696976 -0.433884 0.900969 0.000000
-1.236256 -0.282167 -2.681966 0.000000 0.000000 -1.000000
-1.472108 -0.335999 -2.681966 0.000000 0.000000 -1.000000
-0.550186 -1.142472 -2.681966 0.000000 0.000000 -1.000000
-0.655150 -1.360433 -2.681966 0.000000 0.000000 -1.000000
0.550186 -1.142472 -2.681966 0.000000 0.000000 -1.000000
0.655150 -1.360433 -2.681966 0.000000 0.000000 -1.000000
1.236256 -0.282167 -2.681966 0.000000 0.000000 -1.000000
1.472108 -0.335999 -2.681966 0.000000 0.000000 -1.000000
0.991400 0.790615 -2.681966 0.000000 0.000000 -1.000000
1.180539 0.941449 -2.681966 0.000000 0.000000 -1.000000
-0.991401 0.790615 -1.696976 0.433884 -0.900969 0.000000
-0.991401 0.790615 -2.681966 0.433884 -0.900969 0.000000
0.000000 1.268049 -2.681966 0.433884 -0.900969 0.000000
0.000000 1.268049 -1.696976 0.433884 -0.900969 0.000000
-1.236256 -0.282167 -1.696976 0.974928 -0.222521 0.000000
-1.236256 -0.282167 -2.681966 0.974928 -0.222521 0.000000
-0.991401 0.790615 -2.681966 0.974928 -0.222521 0.000000
-0.991401 0.790615 -1.696976 0.974928 -0.222521 0.000000
-0.550186 -1.142472 -1.696976 0.781832 0.623490 0.000000
-0.550186 -1.142472 -2.681966 0.781832 0.623490 0.000000
-1.236256 -0.282167 -2.681966 0.781832 0.623490 0.000000
-1.236256 -0.282167 -1.696976 0.781832 0.623490 0.000000
0.550186 -1.142472 -1.696976 -0.000000 1.000000 0.000000
0.550186 -1.142472 -2.681966 -0.000000 1.000000 0.000000
-0.550186 -1.142472 -2.681966 -0.000000 1.000000 0.000000
-0.550186 -1.142472 -1.696976 -0.000000 1.000000 0.000000
1.236256 -0.282167 -1.696976 -0.781831 0.623490 0.000000
1.236256 -0.282167 -2.681966 -0.781831 0.623490 0.000000
0.550186 -1.142472 -2.681966 -0.781831 0.623490 0.000000
0.550186 -1.142472 -1.696976 -0.781831 0.623490 0.000000
0.991400 0.790615 -1.696976 -0.974928 -0.222521 0.000000
0.991400 0.790615 -2.681966 -0.974928 -0.222521 0.000000
1.236256 -0.282167 -2.681966 -0.974928 -0.222521 0.000000
1.236256 -0.282167 -1.696976 -0.974928 -0.222521 0.000000
0.000000 1.268049 -1.696976 -0.433884 -0.900969 0.000000
0.000000 1.268049 -2.681966 -0.433884 -0.900969 0.000000
0.991400 0.790615 -2.681966 -0.433884 -0.900969 0.000000
0.991400 0.790615 -1.696976 -0.433884 -0.900969 0.000000
0.000000 1.268049 -1.696976 0.000000 0.000000 1.000000
0.000000 1.509966 -1.696976 0.000000 0.000000 1.000000
-1.180539 0.941448 -1.696976 0.000000 0.000000 1.000000
-0.991401 0.790615 -1.696976 0.000000 0.000000 1.000000
0.991400 0.790615 -1.696976 0.000000 0.000000 1.000000
1.180539 0.941449 -1.696976 0.000000 0.000000 1.000000
1.236256 -0.282167 -1.696976 0.000000 0.000000 1.000000
1.472108 -0.335999 -1.696976 0.000000 0.000000 1.000000
0.550186 -1.142472 -1.696976 0.000000 0.000000 1.000000
0.655150 -1.360433 -1.696976 0.000000 0.000000 1.000000
-0.550186 -1.142472 -1.696976 -0.000000 0.000000 1.000000
-0.655150 -1.360433 -1.696976 -0.000000 0.000000 1.000000
-1.236256 -0.282167 -1.696976 0.000000 0.000000 1.000000
-1.472108 -0.335999 -1.696976 0.000000 0.000000 1.000000
0.000000 1.268049 -2.681966 -0.433884 0.900969 0.000000
0.000000 1.268049 -3.046757 -0.433884 0.900969 0.000000
-0.991401 0.790615 -3.046757 -0.433884 0.900969 0.000000
-0.991401 0.790615 -2.681966 -0.433884 0.900969 0.000000
-0.991401 0.790615 -2.681966 -0.974928 0.222521 0.000000
-0.991401 0.790615 -3.046757 -0.974928 0.222521 0.000000
-1.236256 -0.282167 -3.046757 -0.974928 0.222521 0.000000
-1.236256 -0.282167 -2.681966 -0.974928 0.222521 0.000000
-1.236256 -0.282167 -2.681966 -0.781832 -0.623490 0.000000
-1.236256 -0.282167 -3.046757 -0.781832 -0.623490 0.000000
-0.550186 -1.142472 -3.046757 -0.781832 -0.623490 0.000000
-0.550186 -1.142472 -2.681966 -0.781832 -0.623490 0.000000
-0.550186 -1.142472 -2.681966 -0.000000 -1.000000 0.000000
-0.550186 -1.142472 -3.046757 -0.000000 -1.000000 0.000000
0.550186 -1.142472 -3.046757 -0.000000 -1.000000 0.000000
0.550186 -1.142472 -2.681966 -0.000000 -1.000000 0.000000
0.550186 -1.142472 -2.681966 0.781831 -0.623490 0.000000
0.550186 -1.142472 -3.046757 0.781831 -0.623490 0.000000
1.236256 -0.282167 -3.046757 0.781831 -0.623490 0.000000
1.236256 -0.282167 -2.681966 0.781831 -0.623490 0.000000
1.236256 -0.282167 -2.681966 0.974928 0.222521 0.000000
1.236256 -0.282167 -3.046757 0.974928 0.222521 0.000000
0.991400 0.790615 -3.046757 0.974928 0.222521 0.000000
0.991400 0.790615 -2.681966 0.974928 0.222521 0.000000
0.991400 0.790615 -2.681966 0.433884 0.900969 0.000000
0.991400 0.790615 -3.046757 0.433884 0.900969 0.000000
0.000000 1.268049 -3.046757 0.433884 0.900969 0.000000
0.000000 1.268049 -2.681966 0.433884 0.900969 0.000000
-0.991401 0.790615 -3.046757 -0.290046 0.602286 0.743724
0.000000 1.268049 -3.046757 -0.290046 0.602286 0.743724
0.000000 1.604648 -3.319345 -0.290046 0.602286 0.743724
-1.254565 1.000482 -3.319345 -0.290046 0.602286 0.743724
-1.236256 -0.282167 -3.046757 -0.651727 0.148752 0.743724
-0.991401 0.790615 -3.046757 -0.651727 0.148752 0.743724
-1.254565 1.000482 -3.319345 -0.651727 0.148752 0.743724
-1.564416 -0.357068 -3.319345 -0.651727 0.148752 0.743724
-0.550186 -1.142472 -3.046757 -0.522645 -0.416795 0.743723
-1.236256 -0.282167 -3.046757 -0.522645 -0.416795 0.743723
-1.564416 -0.357068 -3.319345 -0.522645 -0.416795 0.743723
-0.696231 -1.445738 -3.319345 -0.522645 -0.416795 0.743723
0.550186 -1.142472 -3.046757 0.000000 -0.668487 0.743724
-0.550186 -1.142472 -3.046757 0.000000 -0.668487 0.743724
-0.696231 -1.445738 -3.319345 0.000000 -0.668487 0.743724
0.696231 -1.445738 -3.319345 0.000000 -0.668487 0.743724
1.236256 -0.282167 -3.046757 0.522644 -0.416795 0.743723
0.550186 -1.142472 -3.046757 0.522644 -0.416795 0.743723
0.696231 -1.445738 -3.319345 0.522644 -0.416795 0.743723
1.564417 -0.357068 -3.319345 0.522644 -0.416795 0.743723
0.991400 0.790615 -3.046757 0.651727 0.148752 0.743724
1.236256 -0.282167 -3.046757 0.651727 0.148752 0.743724
1.564417 -0.357068 -3.319345 0.651727 0.148752 0.743724
1.254565 1.000482 -3.319345 0.651727 0.148752 0.743724
0.000000 1.268049 -3.046757 0.290046 0.602286 0.743724
0.991400 0.790615 -3.046757 0.290046 0.602286 0.743724
1.254565 1.000482 -3.319345 0.290046 0.602286 0.743724
0.000000 1.604648 -3.319345 0.290046 0.602286 0.743724
-1.254565 1.000482 -3.319345 -0.433884 0.900969 0.000000
0.000000 1.604648 -3.319345 -0.433884 0.900969 0.000000
0.000000 1.604648 -4.239326 -0.433884 0.900969 0.000000
-1.254565 1.000482 -4.239326 -0.433884 0.900969 0.000000
-1.564416 -0.357068 -3.319345 -0.974928 0.222521 0.000000
-1.254565 1.000482 -3.319345 -0.974928 0.222521 0.000000
-1.254565 1.000482 -4.239326 -0.974928 0.222521 0.000000
-1.564416 -0.357068 -4.239326 -0.974928 0.222521 0.000000
-0.696231 -1.445738 -3.319345 -0.781832 -0.623490 0.000000
-1.564416 -0.357068 -3.319345 -0.781832 -0.623490 0.000000
-1.564416 -0.357068 -4.239326 -0.781832 -0.623490 0.000000
-0.696231 -1.445738 -4.239326 -0.781832 -0.623490 0.000000
0.696231 -1.445738 -3.319345 0.000000 -1.000000 0.000000
-0.696231 -1.445738 -3.319345 0.000000 -1.000000 0.000000
-0.696231 -1.445738 -4.239326 0.000000 -1.000000 0.000000
0.696231 -1.445738 -4.239326 0.000000 -1.000000 0.000000
1.564417 -0.357068 -3.319345 0.781831 -0.623490 0.000000
0.696231 -1.445738 -3.319345 0.781831 -0.623490 0.000000
0.696231 -1.445738 -4.239326 0.781831 -0.623490 0.000000
1.564417 -0.357068 -4.239326 0.781831 -0.623490 0.000000
1.254565 1.000482 -3.319345 0.974928 0.222521 0.000000
1.564417 -0.357068 -3.319345 0.974928 0.222521 0.000000
1.564417 -0.357068 -4.239326 0.974928 0.222521 0.000000
1.254565 1.000482 -4.239326 0.974928 0.222521 0.000000
0.000000 1.604648 -3.319345 0.433884 0.900969 0.000000
1.254565 1.000482 -3.319345 0.433884 0.900969 0.000000
1.254565 1.000482 -4.239326 0.433884 0.900969 0.000000
0.000000 1.604648 -4.239326 0.433884 0.900969 0.000000
0.000000 1.604648 -4.239326 0.000000 -0.000000 -1.000000
-1.564416 -0.357068 -4.239326 0.000000 -0.000000 -1.000000
-1.254565 1.000482 -4.239326 0.000000 -0.000000 -1.000000
0.696231 -1.445738 -4.239326 0.000000 0.000000 -1.000000
-0.696231 -1.445738 -4.239326 0.000000 0.000000 -1.000000
1.254565 1.000482 -4.239326 0.000000 0.000000 -1.000000
1.564417 -0.357068 -4.239326 0.000000 0.000000 -1.000000
4 0 1 2 3
4 4 5 6 7
4 8 9 10 11
4 12 13 14 15
4 16 17 18 19
4 20 21 22 23
3 24 25 26
3 27 28 25
3 24 29 27
3 24 27 25
3 30 31 32
3 33 34 35
3 36 37 38
3 39 40 41
3 42 43 44
3 45 46 47
4 48 49 50 51
4 52 53 54 55
4 56 57 58 59
4 60 61 62 63
4 64 65 66 67
4 68 69 70 71
4 72 73 74 75
4 76 77 78 79
4 80 81 82 83
4 84 85 86 87
4 88 89 90 91
4 92 93 94 95
4 96 97 98 99
4 100 101 102 103
4 104 105 106 107
4 108 109 110 111
4 112 113 114 115
4 116 117 118 119
4 120 121 122 123
4 124 125 126 127
4 128 129 130 131
4 132 133 134 135
4 136 137 138 139
4 140 141 142 143
4 144 145 146 147
4 148 149 150 151
4 152 153 154 155
4 156 157 158 159
4 160 161 162 163
4 164 165 166 167
3 168 169 170
3 171 172 169
3 173 174 171
3 168 173 169
3 173 171 169
4 175 176 177 178
4 179 180 181 182
4 183 184 185 186
4 187 188 189 190
4 191 192 193 194
4 195 196 197 198
4 199 200 201 202
4 203 204 205 206
4 207 208 209 210
4 211 212 213 214
4 215 216 217 218
4 219 220 221 222
4 223 224 225 226
4 227 228 229 230
4 231 232 233 234
4 235 236 237 238
4 239 240 241 242
4 243 244 245 246
4 247 248 249 250
4 251 252 253 254
4 255 256 257 258
4 259 260 261 262
4 263 264 265 266
4 267 268 269 270
4 271 272 273 274
4 275 276 277 278
4 279 280 281 282
4 283 284 256 255
4 285 286 284 283
4 287 288 286 285
4 289 290 288 287
4 291 292 290 289
4 258 257 292 291
4 293 294 295 296
4 297 298 299 300
4 301 302 303 304
4 305 306 307 308
4 309 310 311 312
4 313 314 315 316
4 317 318 319 320
4 321 322 323 324
4 322 321 325 326
4 326 325 327 328
4 328 327 329 330
4 330 329 331 332
4 332 331 333 334
4 334 333 324 323
4 335 336 337 338
4 339 340 341 342
4 343 344 345 346
4 347 348 349 350
4 351 352 353 354
4 355 356 357 358
4 359 360 361 362
4 363 364 365 366
4 367 368 369 370
4 371 372 373 374
4 375 376 377 378
4 379 380 381 382
4 383 384 385 386
4 387 388 389 390
4 391 392 393 394
4 395 396 397 398
4 399 400 401 402
4 403 404 405 406
4 407 408 409 410
4 411 412 413 414
4 415 416 417 418
3 419 420 421
3 422 423 420
3 424 425 422
3 419 424 420
3 424 422 420
